<svg width="26" height="26" viewBox="0 0 26 26" fill="none" xmlns="http://www.w3.org/2000/svg">
<g filter="url(#filter0_i_248_2874)">
<circle cx="13" cy="13" r="13" fill="#0088B4"/>
</g>
<path d="M10.564 15.496C11.3 15.08 11.976 14.604 12.592 14.068C13.208 13.524 13.696 12.964 14.056 12.388C14.424 11.812 14.608 11.268 14.608 10.756C14.608 10.316 14.476 9.968 14.212 9.712C13.948 9.448 13.572 9.316 13.084 9.316C12.628 9.316 12.236 9.408 11.908 9.592C11.58 9.768 11.276 9.988 10.996 10.252L10.612 9.712C10.892 9.384 11.292 9.088 11.812 8.824C12.332 8.552 12.888 8.416 13.48 8.416C14.04 8.416 14.512 8.52 14.896 8.728C15.28 8.928 15.564 9.192 15.748 9.52C15.932 9.848 16.024 10.208 16.024 10.6C16.024 11.392 15.644 12.208 14.884 13.048C14.124 13.88 13.172 14.628 12.028 15.292L15.748 15.016L16.168 13.984L16.78 14.104L16.468 16H10.744L10.564 15.496Z" fill="white"/>
<defs>
<filter id="filter0_i_248_2874" x="0" y="0" width="28" height="28" filterUnits="userSpaceOnUse" color-interpolation-filters="sRGB">
<feFlood flood-opacity="0" result="BackgroundImageFix"/>
<feBlend mode="normal" in="SourceGraphic" in2="BackgroundImageFix" result="shape"/>
<feColorMatrix in="SourceAlpha" type="matrix" values="0 0 0 0 0 0 0 0 0 0 0 0 0 0 0 0 0 0 127 0" result="hardAlpha"/>
<feOffset dx="2" dy="2"/>
<feGaussianBlur stdDeviation="3"/>
<feComposite in2="hardAlpha" operator="arithmetic" k2="-1" k3="1"/>
<feColorMatrix type="matrix" values="0 0 0 0 0 0 0 0 0 0 0 0 0 0 0 0 0 0 0.5 0"/>
<feBlend mode="normal" in2="shape" result="effect1_innerShadow_248_2874"/>
</filter>
</defs>
</svg>
