<svg width="114" height="38" viewBox="0 0 114 38" fill="none" xmlns="http://www.w3.org/2000/svg">
<path d="M3.144 10.656L1.2 10.368V9.168H8.088V10.368L5.712 10.656V25.584L11.904 25.368L13.32 21.336L14.784 21.552L13.944 27H1.152V25.824L3.144 25.584V10.656ZM16.5409 23.4C16.5409 21.896 17.2929 20.792 18.7969 20.088C20.3009 19.368 22.2049 18.984 24.5089 18.936V18.264C24.5089 17.512 24.4289 16.92 24.2689 16.488C24.1089 16.056 23.8289 15.744 23.4289 15.552C23.0449 15.344 22.4929 15.24 21.7729 15.24C20.9569 15.24 20.2209 15.36 19.5649 15.6C18.9249 15.824 18.2849 16.104 17.6449 16.44L17.0449 15.192C17.2529 15.016 17.6369 14.784 18.1969 14.496C18.7569 14.208 19.4049 13.952 20.1409 13.728C20.8769 13.504 21.6129 13.392 22.3489 13.392C23.4849 13.392 24.3809 13.552 25.0369 13.872C25.7089 14.176 26.1889 14.672 26.4769 15.36C26.7649 16.048 26.9089 16.968 26.9089 18.12V25.824H28.3249V26.88C28.0049 26.96 27.5969 27.04 27.1009 27.12C26.6209 27.2 26.1969 27.24 25.8289 27.24C25.3809 27.24 25.0769 27.168 24.9169 27.024C24.7569 26.896 24.6769 26.6 24.6769 26.136V25.344C24.1969 25.824 23.6049 26.264 22.9009 26.664C22.2129 27.064 21.4289 27.264 20.5489 27.264C19.3969 27.264 18.4369 26.936 17.6689 26.28C16.9169 25.608 16.5409 24.648 16.5409 23.4ZM21.5809 25.632C21.9969 25.632 22.4769 25.504 23.0209 25.248C23.5649 24.992 24.0609 24.688 24.5089 24.336V20.208C22.7649 20.208 21.4449 20.48 20.5489 21.024C19.6689 21.552 19.2289 22.248 19.2289 23.112C19.2289 23.976 19.4369 24.616 19.8529 25.032C20.2849 25.432 20.8609 25.632 21.5809 25.632ZM32.1881 32.976C31.9161 32.976 31.6441 32.96 31.3721 32.928C31.1161 32.896 30.9321 32.848 30.8201 32.784V30.696C30.9161 30.76 31.1001 30.808 31.3721 30.84C31.6601 30.872 31.9321 30.888 32.1881 30.888C32.9561 30.888 33.6281 30.616 34.2041 30.072C34.7961 29.544 35.3641 28.52 35.9081 27H34.7561L30.1961 15.12L29.0921 14.808V13.68H34.8761V14.808L33.0281 15.096L35.3801 22.176L36.4841 25.68L37.5161 22.152L39.6521 15.096L38.0441 14.808V13.68H42.8681V14.808L41.6681 15.096C39.3161 22.296 37.9321 26.384 37.5161 27.36C36.9721 28.736 36.4761 29.808 36.0281 30.576C35.5801 31.36 35.0521 31.952 34.4441 32.352C33.8361 32.768 33.0841 32.976 32.1881 32.976ZM47.0604 11.28C46.5484 11.28 46.1644 11.136 45.9084 10.848C45.6524 10.56 45.5244 10.192 45.5244 9.744C45.5244 9.232 45.6764 8.808 45.9804 8.472C46.3004 8.136 46.7324 7.968 47.2764 7.968C47.8204 7.968 48.2204 8.112 48.4764 8.4C48.7324 8.688 48.8604 9.056 48.8604 9.504C48.8604 10.048 48.7004 10.48 48.3804 10.8C48.0764 11.12 47.6444 11.28 47.0844 11.28H47.0604ZM46.1004 15.528L44.2764 15.096V13.824L47.9964 13.368H48.0444L48.5964 13.8V25.632L50.5164 25.824V27H44.1564V25.824L46.1004 25.608V15.528ZM53.7666 9.096L51.7506 8.832V7.8L55.6626 7.344H55.7106L56.2386 7.704V13.272L56.1426 15.312C56.6546 14.848 57.3586 14.408 58.2546 13.992C59.1506 13.576 60.0546 13.368 60.9666 13.368C61.9746 13.368 62.7586 13.56 63.3186 13.944C63.8786 14.328 64.2706 14.92 64.4946 15.72C64.7186 16.504 64.8306 17.568 64.8306 18.912V25.608L66.5106 25.824V27H60.7746V25.824L62.3346 25.608V18.888C62.3346 17.944 62.2706 17.208 62.1426 16.68C62.0146 16.136 61.7746 15.736 61.4226 15.48C61.0706 15.208 60.5426 15.072 59.8386 15.072C59.2626 15.072 58.6466 15.216 57.9906 15.504C57.3346 15.792 56.7586 16.128 56.2626 16.512V25.608L57.9186 25.824V27H52.3266V25.824L53.7666 25.632V9.096ZM73.5329 13.416C75.4689 13.416 76.9409 14.048 77.9489 15.312C78.9729 16.576 79.4849 18.264 79.4849 20.376C79.4849 21.768 79.2209 22.992 78.6929 24.048C78.1649 25.104 77.4209 25.92 76.4609 26.496C75.5169 27.072 74.4369 27.36 73.2209 27.36C71.7329 27.36 70.5729 26.952 69.7409 26.136C68.9249 25.304 68.4929 24.12 68.4449 22.584C68.4449 21.608 68.5009 20.864 68.6129 20.352H76.8689C76.8369 18.768 76.4689 17.496 75.7649 16.536C75.0609 15.56 74.0609 15.072 72.7649 15.072C72.1249 15.072 71.4529 15.192 70.7489 15.432C70.0609 15.656 69.5249 15.928 69.1409 16.248L68.6849 15.192C69.1489 14.712 69.8369 14.296 70.7489 13.944C71.6609 13.592 72.5889 13.416 73.5329 13.416ZM71.0849 21.624C71.0369 21.96 71.0129 22.304 71.0129 22.656C71.0289 23.696 71.2449 24.52 71.6609 25.128C72.0929 25.72 72.7649 26.016 73.6769 26.016C74.6049 26.016 75.3409 25.68 75.8849 25.008C76.4449 24.336 76.7649 23.208 76.8449 21.624H71.0849ZM83.5976 9.096L81.6536 8.832V7.8L85.5176 7.344H85.5656L86.0936 7.704V25.632L88.1336 25.824V27H81.6536V25.824L83.5976 25.608V9.096ZM95.0798 13.416C97.0158 13.416 98.4878 14.048 99.4958 15.312C100.52 16.576 101.032 18.264 101.032 20.376C101.032 21.768 100.768 22.992 100.24 24.048C99.7118 25.104 98.9678 25.92 98.0078 26.496C97.0638 27.072 95.9838 27.36 94.7678 27.36C93.2798 27.36 92.1198 26.952 91.2878 26.136C90.4718 25.304 90.0398 24.12 89.9918 22.584C89.9918 21.608 90.0478 20.864 90.1598 20.352H98.4158C98.3838 18.768 98.0158 17.496 97.3118 16.536C96.6078 15.56 95.6078 15.072 94.3118 15.072C93.6718 15.072 92.9998 15.192 92.2958 15.432C91.6078 15.656 91.0718 15.928 90.6878 16.248L90.2318 15.192C90.6958 14.712 91.3838 14.296 92.2958 13.944C93.2078 13.592 94.1358 13.416 95.0798 13.416ZM92.6318 21.624C92.5838 21.96 92.5598 22.304 92.5598 22.656C92.5758 23.696 92.7918 24.52 93.2078 25.128C93.6398 25.72 94.3118 26.016 95.2238 26.016C96.1518 26.016 96.8878 25.68 97.4318 25.008C97.9918 24.336 98.3118 23.208 98.3918 21.624H92.6318ZM103.441 25.824L105.241 25.68V15.528L103.513 15.096V13.8L106.825 13.368H106.873L107.401 13.8V14.232L107.329 16.104H107.401C107.561 15.832 107.849 15.48 108.265 15.048C108.681 14.616 109.217 14.224 109.873 13.872C110.529 13.504 111.241 13.32 112.009 13.32C112.329 13.32 112.593 13.36 112.801 13.44V16.128C112.689 16.048 112.505 15.976 112.249 15.912C112.009 15.832 111.737 15.792 111.433 15.792C110.105 15.792 108.873 16.2 107.737 17.016V25.656L110.785 25.848V27H103.441V25.824Z" fill="black"/>
<line y1="36.5" x2="34" y2="36.5" stroke="#00A9D2" stroke-width="3"/>
<line x1="40" y1="36.5" x2="74" y2="36.5" stroke="#D72C18" stroke-width="3"/>
<line x1="80" y1="36.5" x2="114" y2="36.5" stroke="#00A65A" stroke-width="3"/>
</svg>
